# xmcd
#
# Track frame offsets:
# 150
# 10838
# 22651
# 33677
# 43613
# 55990
# 68147
# 78178
# 90616
# 101021
# 111836
# 123030
#
# Disc length: 1830 seconds
#
#
# Revision: 5
# Processed by: cddbd v1.5.2PL0 Copyright (c) Steve Scherf et al.
# Submitted via: FreeRIP 2.951 
#
DISCID=8b07240c
DTITLE=Buck Owens - All-Time Greatest Hits Volume 1
DYEAR=1990
DGENRE=
TTITLE0=Act Naturally
TTITLE1=Streets Of Bakersfield
TTITLE2=Together Again
TTITLE3=Before You Go
TTITLE4=Made In Japan
TTITLE5=Foolin' Around
TTITLE6=I've Got A Tiger By The Tail
TTITLE7=Under Your Spell Again
TTITLE8=Think Of Me
TTITLE9=Who's Gonna Mow Your Grass
TTITLE10=Excuse Me (I Think I've Got A Heartache)
TTITLE11=Big In Vegas
EXTD=
EXTT0=
EXTT1=
EXTT2=
EXTT3=
EXTT4=
EXTT5=
EXTT6=
EXTT7=
EXTT8=
EXTT9=
EXTT10=
EXTT11=
PLAYORDER=
